<svg width="498" height="498" viewBox="0 0 498 498" fill="none" xmlns="http://www.w3.org/2000/svg">
<path d="M249 54C260 54 270 58 270 82.5C270.833 83.3333 273 84.1 273 88C273 96.1 261.5 97 261.5 110C261.5 123 300 119 300 143.5C300 199 293 251.278 293 268.5C293 277 288.5 283.5 285 283.5" stroke="currentColor"/>
<path d="M249 54C238 54 228 58 228 82.5C227.167 83.3333 225 84.1 225 88C225 96.1 236.5 97 236.5 110C236.5 123 198 119 198 143.5C198 199 205 251.278 205 268.5C205 277 209.5 283.5 213 283.5" stroke="currentColor"/>
<path d="M302 142.489C302 117.266 262.99 121.384 262.99 108C252.93 110.623 245.245 110.691 235.01 108C235.01 121.384 196 117.266 196 142.489C196 194.061 201.927 242.932 203.081 265C204.721 266 207 268 212.5 268V262H285.5V268C291 268 294.919 265 294.919 265C296.073 242.932 302 194.061 302 142.489Z" fill="#22c55e" stroke="currentColor" stroke-linejoin="round"/>
<path d="M287.5 152C287.5 179 279.5 183 279.5 204C279.5 220.5 285.5 229.5 285.5 264C285.5 303 274 313 274 335C274 361.5 260 409 260 420C260 429.5 266 434 266 443C266 448 262 450 257.5 450C253 450 249 448 249 448" stroke="currentColor"/>
<path d="M210.5 152C210.5 179 218.5 183 218.5 204C218.5 220.5 212.5 229.5 212.5 264C212.5 303 224 313 224 335C224 361.5 238 409 238 420C238 429.5 232 434 232 443C232 448 236 450 240.5 450C245 450 249 448 249 448" stroke="currentColor"/>
<path d="M275 335C275 313 285.5 303 285.5 264V262H212.5V264C212.5 303 223 313 223 335C223 361.5 236 409 236 420H262C262 409 275 361.5 275 335Z" fill="#22c55e" stroke="currentColor" stroke-linejoin="round"/>
<path d="M249 268V448" stroke="currentColor"/>
<path d="M191.354 165.354C191.549 165.158 191.549 164.842 191.354 164.646L188.172 161.464C187.976 161.269 187.66 161.269 187.464 161.464C187.269 161.66 187.269 161.976 187.464 162.172L190.293 165L187.464 167.828C187.269 168.024 187.269 168.34 187.464 168.536C187.66 168.731 187.976 168.731 188.172 168.536L191.354 165.354ZM166 165.5L191 165.5L191 164.5L166 164.5L166 165.5Z" fill="currentColor"/>
<path d="M217.354 328.354C217.549 328.158 217.549 327.842 217.354 327.646L214.172 324.464C213.976 324.269 213.66 324.269 213.464 324.464C213.269 324.66 213.269 324.976 213.464 325.172L216.293 328L213.464 330.828C213.269 331.024 213.269 331.34 213.464 331.536C213.66 331.731 213.976 331.731 214.172 331.536L217.354 328.354ZM166 328.5L217 328.5L217 327.5L166 327.5L166 328.5Z" fill="currentColor"/>
</svg>
