<svg width="498" height="498" viewBox="0 0 498 498" fill="none" xmlns="http://www.w3.org/2000/svg">
<path d="M249 54C260 54 270 58 270 82.5C270.833 83.3333 273 84.1 273 88C273 96.1 261.5 97 261.5 110C261.5 123 300 119 300 143.5C300 199 293 251.278 293 268.5C293 277 288.5 283.5 285 283.5" stroke="currentColor"/>
<path d="M249 54C238 54 228 58 228 82.5C227.167 83.3333 225 84.1 225 88C225 96.1 236.5 97 236.5 110C236.5 123 198 119 198 143.5C198 199 205 251.278 205 268.5C205 277 209.5 283.5 213 283.5" stroke="currentColor"/>
<path d="M302 142.489C302 117.266 262.99 121.384 262.99 108C252.93 110.623 245.245 110.691 235.01 108C235.01 121.384 196 117.266 196 142.489C196 194.061 201.927 242.932 203.081 265C204.721 266 207 268 212.5 268V262H285.5V268C291 268 294.919 265 294.919 265C296.073 242.932 302 194.061 302 142.489Z" fill="#22c55e" stroke="currentColor" stroke-linejoin="round"/>
<path d="M287.5 152C287.5 179 279.5 183 279.5 204C279.5 220.5 285.5 229.5 285.5 264C285.5 303 274 313 274 335C274 361.5 260 409 260 420C260 429.5 266 434 266 443C266 448 262 450 257.5 450C253 450 249 448 249 448" stroke="currentColor"/>
<path d="M210.5 152C210.5 179 218.5 183 218.5 204C218.5 220.5 212.5 229.5 212.5 264C212.5 303 224 313 224 335C224 361.5 238 409 238 420C238 429.5 232 434 232 443C232 448 236 450 240.5 450C245 450 249 448 249 448" stroke="currentColor"/>
<path d="M275 335C275 313 285.5 303 285.5 264V262H212.5V264C212.5 303 223 313 223 335C223 361.5 236 409 236 420H262C262 409 275 361.5 275 335Z" fill="#22c55e" stroke="currentColor" stroke-linejoin="round"/>
<path d="M249 268V448" stroke="currentColor"/>
<path d="M191.354 165.354C191.549 165.158 191.549 164.842 191.354 164.646L188.172 161.464C187.976 161.269 187.66 161.269 187.464 161.464C187.269 161.66 187.269 161.976 187.464 162.172L190.293 165L187.464 167.828C187.269 168.024 187.269 168.34 187.464 168.536C187.66 168.731 187.976 168.731 188.172 168.536L191.354 165.354ZM166 165.5L191 165.5L191 164.5L166 164.5L166 165.5Z" fill="currentColor"/>
<path d="M122.16 159.312H130.768V160.608H127.216V170H125.712V160.608H122.16V159.312ZM130.155 166.064C130.155 165.349 130.267 164.731 130.491 164.208C130.715 163.685 131.008 163.259 131.371 162.928C131.734 162.587 132.139 162.336 132.587 162.176C133.046 162.016 133.504 161.936 133.963 161.936C134.422 161.936 134.875 162.016 135.323 162.176C135.782 162.336 136.192 162.587 136.555 162.928C136.918 163.259 137.211 163.685 137.435 164.208C137.659 164.731 137.771 165.349 137.771 166.064C137.771 166.779 137.659 167.397 137.435 167.92C137.211 168.443 136.918 168.875 136.555 169.216C136.192 169.547 135.782 169.792 135.323 169.952C134.875 170.112 134.422 170.192 133.963 170.192C133.504 170.192 133.046 170.112 132.587 169.952C132.139 169.792 131.734 169.547 131.371 169.216C131.008 168.875 130.715 168.443 130.491 167.92C130.267 167.397 130.155 166.779 130.155 166.064ZM131.595 166.064C131.595 166.576 131.664 167.019 131.803 167.392C131.942 167.755 132.123 168.059 132.347 168.304C132.571 168.539 132.822 168.715 133.099 168.832C133.387 168.949 133.675 169.008 133.963 169.008C134.251 169.008 134.534 168.949 134.811 168.832C135.099 168.715 135.355 168.539 135.579 168.304C135.803 168.059 135.984 167.755 136.123 167.392C136.262 167.019 136.331 166.576 136.331 166.064C136.331 165.552 136.262 165.109 136.123 164.736C135.984 164.363 135.803 164.059 135.579 163.824C135.355 163.579 135.099 163.403 134.811 163.296C134.534 163.179 134.251 163.12 133.963 163.12C133.675 163.12 133.387 163.179 133.099 163.296C132.822 163.403 132.571 163.579 132.347 163.824C132.123 164.059 131.942 164.363 131.803 164.736C131.664 165.109 131.595 165.552 131.595 166.064ZM139.495 162.064H140.471L140.839 163.312C141.084 162.896 141.415 162.565 141.831 162.32C142.258 162.064 142.786 161.936 143.415 161.936C143.863 161.936 144.295 162.027 144.711 162.208C145.127 162.389 145.49 162.656 145.799 163.008C146.108 163.36 146.354 163.792 146.535 164.304C146.727 164.816 146.823 165.403 146.823 166.064C146.823 166.715 146.727 167.296 146.535 167.808C146.354 168.32 146.108 168.752 145.799 169.104C145.49 169.456 145.127 169.728 144.711 169.92C144.295 170.101 143.863 170.192 143.415 170.192C142.786 170.192 142.258 170.069 141.831 169.824C141.415 169.568 141.084 169.227 140.839 168.8V172.576H139.495V162.064ZM143.063 169.04C143.746 169.04 144.29 168.784 144.695 168.272C145.111 167.749 145.319 167.013 145.319 166.064C145.319 165.115 145.111 164.384 144.695 163.872C144.29 163.349 143.746 163.088 143.063 163.088C142.38 163.088 141.831 163.349 141.415 163.872C141.01 164.384 140.807 165.115 140.807 166.064C140.807 167.013 141.01 167.749 141.415 168.272C141.831 168.784 142.38 169.04 143.063 169.04Z" fill="currentColor"/>
<rect x="114.5" y="151.5" width="41" height="28" stroke="currentColor"/>
<path d="M217.354 328.354C217.549 328.158 217.549 327.842 217.354 327.646L214.172 324.464C213.976 324.269 213.66 324.269 213.464 324.464C213.269 324.66 213.269 324.976 213.464 325.172L216.293 328L213.464 330.828C213.269 331.024 213.269 331.34 213.464 331.536C213.66 331.731 213.976 331.731 214.172 331.536L217.354 328.354ZM166 328.5L217 328.5L217 327.5L166 327.5L166 328.5Z" fill="currentColor"/>
<path d="M97.216 321.312H101.52C102.096 321.312 102.592 321.387 103.008 321.536C103.435 321.685 103.781 321.883 104.048 322.128C104.315 322.373 104.512 322.656 104.64 322.976C104.768 323.296 104.832 323.627 104.832 323.968C104.832 324.395 104.736 324.816 104.544 325.232C104.352 325.648 104.075 326.011 103.712 326.32C104.245 326.597 104.64 326.976 104.896 327.456C105.163 327.925 105.296 328.416 105.296 328.928C105.296 329.312 105.221 329.691 105.072 330.064C104.923 330.427 104.699 330.752 104.4 331.04C104.112 331.328 103.749 331.563 103.312 331.744C102.875 331.915 102.363 332 101.776 332H97.216V321.312ZM98.72 327.072V330.736H101.936C102.235 330.736 102.496 330.683 102.72 330.576C102.944 330.469 103.131 330.331 103.28 330.16C103.44 329.979 103.557 329.781 103.632 329.568C103.707 329.344 103.744 329.115 103.744 328.88C103.744 328.656 103.707 328.437 103.632 328.224C103.557 328 103.44 327.803 103.28 327.632C103.131 327.461 102.944 327.328 102.72 327.232C102.496 327.125 102.229 327.072 101.92 327.072H98.72ZM98.72 322.576V325.888H101.68C101.957 325.888 102.197 325.84 102.4 325.744C102.603 325.648 102.768 325.525 102.896 325.376C103.035 325.227 103.136 325.056 103.2 324.864C103.275 324.661 103.312 324.459 103.312 324.256C103.312 324.043 103.275 323.84 103.2 323.648C103.136 323.445 103.035 323.264 102.896 323.104C102.757 322.944 102.587 322.816 102.384 322.72C102.181 322.624 101.947 322.576 101.68 322.576H98.72ZM106.514 328.064C106.514 327.349 106.626 326.731 106.85 326.208C107.074 325.685 107.368 325.259 107.73 324.928C108.093 324.587 108.498 324.336 108.946 324.176C109.405 324.016 109.864 323.936 110.322 323.936C110.781 323.936 111.234 324.016 111.682 324.176C112.141 324.336 112.552 324.587 112.914 324.928C113.277 325.259 113.57 325.685 113.794 326.208C114.018 326.731 114.13 327.349 114.13 328.064C114.13 328.779 114.018 329.397 113.794 329.92C113.57 330.443 113.277 330.875 112.914 331.216C112.552 331.547 112.141 331.792 111.682 331.952C111.234 332.112 110.781 332.192 110.322 332.192C109.864 332.192 109.405 332.112 108.946 331.952C108.498 331.792 108.093 331.547 107.73 331.216C107.368 330.875 107.074 330.443 106.85 329.92C106.626 329.397 106.514 328.779 106.514 328.064ZM107.954 328.064C107.954 328.576 108.024 329.019 108.162 329.392C108.301 329.755 108.482 330.059 108.706 330.304C108.93 330.539 109.181 330.715 109.458 330.832C109.746 330.949 110.034 331.008 110.322 331.008C110.61 331.008 110.893 330.949 111.17 330.832C111.458 330.715 111.714 330.539 111.938 330.304C112.162 330.059 112.344 329.755 112.482 329.392C112.621 329.019 112.69 328.576 112.69 328.064C112.69 327.552 112.621 327.109 112.482 326.736C112.344 326.363 112.162 326.059 111.938 325.824C111.714 325.579 111.458 325.403 111.17 325.296C110.893 325.179 110.61 325.12 110.322 325.12C110.034 325.12 109.746 325.179 109.458 325.296C109.181 325.403 108.93 325.579 108.706 325.824C108.482 326.059 108.301 326.363 108.162 326.736C108.024 327.109 107.954 327.552 107.954 328.064ZM116.398 324.064V322.064H117.742V324.064H119.278V325.136H117.742V329.792C117.742 329.995 117.748 330.165 117.758 330.304C117.769 330.432 117.801 330.533 117.854 330.608C117.918 330.683 118.004 330.736 118.11 330.768C118.217 330.8 118.366 330.816 118.558 330.816H119.278V332H118.27C117.886 332 117.572 331.973 117.326 331.92C117.092 331.867 116.905 331.771 116.766 331.632C116.628 331.483 116.532 331.28 116.478 331.024C116.425 330.768 116.398 330.432 116.398 330.016V325.136H115.054V324.064H116.398ZM121.586 324.064V322.064H122.93V324.064H124.466V325.136H122.93V329.792C122.93 329.995 122.935 330.165 122.946 330.304C122.957 330.432 122.989 330.533 123.042 330.608C123.106 330.683 123.191 330.736 123.298 330.768C123.405 330.8 123.554 330.816 123.746 330.816H124.466V332H123.458C123.074 332 122.759 331.973 122.514 331.92C122.279 331.867 122.093 331.771 121.954 331.632C121.815 331.483 121.719 331.28 121.666 331.024C121.613 330.768 121.586 330.432 121.586 330.016V325.136H120.242V324.064H121.586ZM125.717 328.064C125.717 327.349 125.829 326.731 126.053 326.208C126.277 325.685 126.571 325.259 126.933 324.928C127.296 324.587 127.701 324.336 128.149 324.176C128.608 324.016 129.067 323.936 129.525 323.936C129.984 323.936 130.437 324.016 130.885 324.176C131.344 324.336 131.755 324.587 132.117 324.928C132.48 325.259 132.773 325.685 132.997 326.208C133.221 326.731 133.333 327.349 133.333 328.064C133.333 328.779 133.221 329.397 132.997 329.92C132.773 330.443 132.48 330.875 132.117 331.216C131.755 331.547 131.344 331.792 130.885 331.952C130.437 332.112 129.984 332.192 129.525 332.192C129.067 332.192 128.608 332.112 128.149 331.952C127.701 331.792 127.296 331.547 126.933 331.216C126.571 330.875 126.277 330.443 126.053 329.92C125.829 329.397 125.717 328.779 125.717 328.064ZM127.157 328.064C127.157 328.576 127.227 329.019 127.365 329.392C127.504 329.755 127.685 330.059 127.909 330.304C128.133 330.539 128.384 330.715 128.661 330.832C128.949 330.949 129.237 331.008 129.525 331.008C129.813 331.008 130.096 330.949 130.373 330.832C130.661 330.715 130.917 330.539 131.141 330.304C131.365 330.059 131.547 329.755 131.685 329.392C131.824 329.019 131.893 328.576 131.893 328.064C131.893 327.552 131.824 327.109 131.685 326.736C131.547 326.363 131.365 326.059 131.141 325.824C130.917 325.579 130.661 325.403 130.373 325.296C130.096 325.179 129.813 325.12 129.525 325.12C129.237 325.12 128.949 325.179 128.661 325.296C128.384 325.403 128.133 325.579 127.909 325.824C127.685 326.059 127.504 326.363 127.365 326.736C127.227 327.109 127.157 327.552 127.157 328.064ZM135.058 324.064H136.049L136.402 325.264C136.626 324.891 136.93 324.576 137.314 324.32C137.698 324.064 138.188 323.936 138.786 323.936C139.394 323.936 139.879 324.059 140.242 324.304C140.615 324.549 140.892 324.891 141.074 325.328C141.394 324.837 141.778 324.485 142.226 324.272C142.684 324.048 143.191 323.936 143.746 323.936C144.204 323.936 144.594 324.011 144.914 324.16C145.244 324.309 145.511 324.517 145.714 324.784C145.916 325.051 146.066 325.371 146.162 325.744C146.258 326.117 146.306 326.528 146.306 326.976V332H144.962V327.376C144.962 327.067 144.94 326.779 144.898 326.512C144.866 326.235 144.786 325.989 144.658 325.776C144.54 325.563 144.37 325.397 144.146 325.28C143.932 325.152 143.639 325.088 143.266 325.088C142.69 325.088 142.226 325.312 141.874 325.76C141.532 326.197 141.362 326.843 141.362 327.696V332H140.018V327.376C140.018 327.067 139.996 326.779 139.954 326.512C139.911 326.235 139.831 325.989 139.714 325.776C139.596 325.563 139.426 325.397 139.202 325.28C138.978 325.152 138.684 325.088 138.322 325.088C137.746 325.088 137.282 325.312 136.93 325.76C136.578 326.197 136.402 326.843 136.402 327.696V332H135.058V324.064Z" fill="currentColor"/>
<rect x="88.5" y="313.5" width="67" height="28" stroke="currentColor"/>
</svg>
